<svg width="37" height="37" viewBox="0 0 37 37" fill="none" xmlns="http://www.w3.org/2000/svg">
<g clip-path="url(#clip0_2893_3710)">
<path d="M8.06866 12.2653C8.18245 12.2648 8.18245 12.2648 8.29853 12.2642C8.54839 12.2632 8.79823 12.2633 9.04809 12.2634C9.22242 12.2632 9.39674 12.2628 9.57106 12.2625C9.93614 12.262 10.3012 12.262 10.6663 12.2624C11.1333 12.2628 11.6002 12.2616 12.0671 12.2599C12.4271 12.2588 12.787 12.2587 13.147 12.259C13.3191 12.2589 13.4912 12.2586 13.6633 12.2578C13.9044 12.2569 14.1455 12.2574 14.3865 12.2583C14.4571 12.2577 14.5276 12.2572 14.6002 12.2566C15.0906 12.2603 15.5779 12.3134 15.9791 12.6186C16.2661 12.9891 16.4263 13.286 16.3949 13.7666C16.3369 14.1676 16.1626 14.4147 15.8665 14.688C15.6879 14.8099 15.5239 14.8891 15.32 14.959C15.3017 15.0581 15.2856 15.1575 15.2703 15.2571C15.2611 15.3124 15.2518 15.3678 15.2423 15.4248C15.2497 15.6799 15.3303 15.8271 15.4645 16.043C15.6334 16.2018 15.6334 16.2018 15.8303 16.3411C16.4598 16.8402 16.93 17.411 17.2982 18.1206C17.3206 18.1627 17.343 18.2048 17.366 18.2481C17.8546 19.2525 17.8916 20.2942 17.8867 21.3859C17.8871 21.5345 17.8876 21.683 17.8882 21.8315C17.8895 22.2313 17.889 22.6311 17.8881 23.0309C17.8874 23.4509 17.888 23.8709 17.8885 24.2909C17.889 24.9954 17.8883 25.6999 17.8869 26.4044C17.8854 27.2177 17.8859 28.0309 17.8875 28.8442C17.8888 29.5445 17.889 30.2448 17.8882 30.9451C17.8878 31.3625 17.8877 31.7799 17.8887 32.1973C17.8895 32.5894 17.8889 32.9814 17.8872 33.3735C17.8869 33.517 17.887 33.6605 17.8876 33.804C17.8909 34.6173 17.8743 35.2596 17.4382 35.9702C16.9632 36.4324 16.4368 36.728 15.764 36.7303C15.6812 36.7309 15.5983 36.7315 15.5129 36.7321C15.4231 36.7321 15.3332 36.732 15.2406 36.7319C15.1441 36.7324 15.0477 36.7329 14.9513 36.7334C14.6901 36.7347 14.429 36.735 14.1678 36.7351C14.0044 36.7352 13.8409 36.7355 13.6774 36.7359C13.1064 36.7373 12.5353 36.7378 11.9642 36.7377C11.4333 36.7376 10.9024 36.7392 10.3714 36.7415C9.91451 36.7433 9.45758 36.7441 9.00065 36.744C8.72823 36.744 8.45583 36.7444 8.18342 36.7459C7.92693 36.7473 7.67047 36.7473 7.41398 36.7463C7.27603 36.7461 7.13809 36.7473 7.00015 36.7485C6.35613 36.7439 5.86964 36.6217 5.32924 36.2683C4.82921 35.7456 4.61385 35.2358 4.61401 34.5207C4.61375 34.4587 4.61348 34.3968 4.61321 34.3329C4.61241 34.1244 4.61213 33.9159 4.61186 33.7073C4.6114 33.5581 4.61092 33.4089 4.61042 33.2597C4.6089 32.7687 4.60815 32.2777 4.60743 31.7867C4.60714 31.6176 4.60684 31.4484 4.60654 31.2792C4.60516 30.484 4.60413 29.6887 4.60353 28.8934C4.60282 27.9766 4.60093 27.0599 4.598 26.1431C4.59582 25.434 4.59475 24.7248 4.59451 24.0156C4.59434 23.5924 4.5937 23.1692 4.59188 22.746C4.59019 22.3472 4.58989 21.9484 4.59063 21.5495C4.59067 21.4039 4.59022 21.2582 4.58922 21.1125C4.58238 20.0537 4.67225 19.087 5.17116 18.1297C5.19548 18.0822 5.21981 18.0348 5.24487 17.986C5.64587 17.2399 6.19242 16.6757 6.86178 16.1649C7.11457 15.9561 7.21026 15.7721 7.24202 15.4482C7.23961 15.2637 7.22446 15.1299 7.15394 14.959C7.01692 14.8569 6.88392 14.8013 6.72543 14.7383C6.39737 14.5885 6.24881 14.3206 6.11513 13.9924C6.04395 13.5797 6.06898 13.2884 6.26869 12.9175C6.77467 12.2991 7.31722 12.2634 8.06866 12.2653ZM7.08168 13.3692C7.00322 13.5023 7.00322 13.5023 7.00941 13.6582C7.09263 13.816 7.09263 13.816 7.22621 13.9473C7.38041 13.9907 7.38041 13.9907 7.55535 13.9845C7.62283 13.9854 7.69031 13.9863 7.75983 13.9873C7.83372 13.9868 7.9076 13.9863 7.98373 13.9858C8.06165 13.9865 8.13957 13.9871 8.21985 13.9877C8.47807 13.9894 8.73624 13.9889 8.99446 13.9882C9.17347 13.9886 9.35249 13.989 9.5315 13.9896C9.95507 13.9904 10.3786 13.9897 10.8022 13.9885C11.1402 13.9877 11.4781 13.9886 11.8161 13.9904C12.2816 13.9929 12.7471 13.9936 13.2127 13.9928C13.3904 13.9928 13.5681 13.9933 13.7459 13.9943C13.994 13.9956 14.242 13.9945 14.4902 13.9929C14.5641 13.9937 14.6379 13.9946 14.7141 13.9954C14.8992 13.9929 15.0672 13.9882 15.2477 13.9473C15.4168 13.7871 15.4168 13.7871 15.4645 13.586C15.4295 13.4196 15.4295 13.4196 15.32 13.2969C15.1174 13.2294 14.9949 13.2154 14.7855 13.215C14.7205 13.2147 14.6556 13.2143 14.5887 13.214C14.5176 13.2141 14.4466 13.2141 14.3733 13.2141C14.2983 13.2139 14.2234 13.2136 14.1461 13.2134C13.8976 13.2127 13.6492 13.2126 13.4007 13.2125C13.2283 13.2123 13.056 13.212 12.8836 13.2118C12.5221 13.2113 12.1606 13.2112 11.799 13.2112C11.3353 13.2112 10.8715 13.2103 10.4078 13.209C10.0518 13.2082 9.69574 13.2081 9.3397 13.2081C9.1687 13.208 8.99769 13.2077 8.82669 13.2071C8.58776 13.2064 8.34886 13.2066 8.10993 13.2071C8.03901 13.2067 7.96808 13.2063 7.89501 13.2058C7.79729 13.2063 7.79729 13.2063 7.6976 13.2068C7.64112 13.2067 7.58465 13.2067 7.52646 13.2066C7.34886 13.2272 7.23315 13.2752 7.08168 13.3692ZM8.16566 14.8867C8.16566 15.1729 8.16566 15.4591 8.16566 15.7539C7.98454 16.3697 7.72174 16.6959 7.23242 17.0954C6.26552 17.8966 5.65557 19.0231 5.52608 20.2726C5.47329 20.8765 5.48054 21.4815 5.48019 22.0872C5.47986 22.2223 5.47949 22.3573 5.4791 22.4924C5.47816 22.8571 5.47769 23.2219 5.47737 23.5866C5.47716 23.8148 5.47686 24.043 5.47654 24.2711C5.47555 24.986 5.47485 25.7009 5.47457 26.4157C5.47425 27.2394 5.47298 28.063 5.47089 28.8866C5.46932 29.5246 5.46859 30.1627 5.4685 30.8007C5.46842 31.1813 5.468 31.5618 5.4667 31.9423C5.46551 32.3 5.46536 32.6576 5.46599 33.0153C5.46605 33.1463 5.46573 33.2772 5.46502 33.4082C5.45186 34.4486 5.45186 34.4486 5.83961 35.4011C6.28784 35.8366 6.76358 35.8033 7.35363 35.8018C7.44651 35.8025 7.53939 35.8031 7.63508 35.8037C7.88906 35.8053 8.14303 35.8055 8.39702 35.8054C8.60946 35.8054 8.8219 35.806 9.03434 35.8066C9.53577 35.808 10.0372 35.8082 10.5386 35.8077C11.055 35.8072 11.5713 35.8089 12.0876 35.8116C12.5318 35.8138 12.9759 35.8146 13.4201 35.8143C13.685 35.8142 13.9499 35.8146 14.2148 35.8163C14.5104 35.8182 14.8059 35.8172 15.1016 35.816C15.1887 35.8169 15.2758 35.8179 15.3656 35.8189C15.8045 35.8145 16.1277 35.7793 16.4991 35.537C16.8724 35.1476 16.9525 34.8015 16.9465 34.2824C16.947 34.2216 16.9474 34.1608 16.9479 34.0981C16.949 33.8953 16.9481 33.6926 16.9472 33.4898C16.9476 33.3439 16.9481 33.1981 16.9487 33.0523C16.9501 32.6568 16.9495 32.2612 16.9486 31.8657C16.9479 31.451 16.9486 31.0362 16.949 30.6215C16.9496 29.9245 16.9489 29.2275 16.9475 28.5306C16.9459 27.7266 16.9464 26.9227 16.948 26.1187C16.9493 25.4273 16.9495 24.7358 16.9488 24.0444C16.9483 23.632 16.9482 23.2196 16.9492 22.8072C16.95 22.4188 16.9494 22.0305 16.9478 21.6422C16.9474 21.5003 16.9475 21.3584 16.9482 21.2166C16.9542 19.7326 16.6364 18.5407 15.609 17.416C15.2296 16.9803 15.2296 16.9803 14.7418 16.7656C14.405 16.098 14.3082 15.6892 14.3082 14.8867C12.2812 14.8867 10.2541 14.8867 8.16566 14.8867Z" fill="white"/>
<path d="M28.4887 0.756694C28.9681 1.13648 29.2417 1.63878 29.3395 2.24012C29.3526 2.4487 29.363 2.65633 29.3706 2.8651C29.3757 2.99044 29.3809 3.11578 29.3862 3.24112C29.3889 3.30636 29.3915 3.37159 29.3943 3.4388C29.4598 4.99892 29.5653 6.51225 29.9899 8.02136C30.0144 8.11762 30.0387 8.21392 30.0622 8.31043C30.1381 8.30707 30.214 8.30372 30.2922 8.30026C30.8765 8.28217 31.3597 8.27408 31.8688 8.59949C31.9344 8.63973 32 8.67998 32.0675 8.72144C32.4206 9.0843 32.67 9.55855 32.6765 10.0686C32.6779 10.163 32.6779 10.163 32.6793 10.2594C32.6799 10.3274 32.6804 10.3954 32.681 10.4654C32.6815 10.5357 32.6821 10.6061 32.6827 10.6785C32.6837 10.8276 32.6845 10.9767 32.6851 11.1258C32.6863 11.3523 32.6895 11.5787 32.6927 11.8051C32.6934 11.9502 32.694 12.0953 32.6945 12.2404C32.6958 12.3075 32.697 12.3746 32.6983 12.4438C32.6965 13.0134 32.5304 13.4199 32.2211 13.8929C31.7175 14.3747 31.2211 14.4933 30.534 14.4856C30.4339 14.4822 30.3339 14.4789 30.2338 14.4756C30.0614 14.4714 29.889 14.4674 29.7165 14.4635C29.5668 14.46 29.417 14.4565 29.2673 14.453C29.2677 14.552 29.2677 14.552 29.2683 14.6531C29.2754 16.3121 29.2579 17.969 29.2134 19.6274C29.2053 19.931 29.1981 20.2345 29.1911 20.5381C29.1855 20.7773 29.1793 21.0166 29.1729 21.2558C29.17 21.3679 29.1673 21.4799 29.1648 21.5919C29.1264 23.2819 29.1264 23.2819 28.7388 24.0192C28.6974 24.1002 28.6559 24.1813 28.6132 24.2648C28.328 24.7369 27.9998 25.1131 27.4606 25.2929C27.023 25.3293 26.7274 25.2863 26.3766 25.0038C25.5262 24.2346 25.2876 23.2923 25.228 22.1955C25.205 21.7269 25.1936 21.2579 25.1817 20.789C25.1786 20.6706 25.1754 20.5522 25.1723 20.4339C25.1658 20.1869 25.1594 19.9399 25.1532 19.6929C25.1453 19.3828 25.137 19.0728 25.1286 18.7628C25.0899 17.3258 25.0649 15.8906 25.0758 14.453C24.8491 14.4572 24.8491 14.4572 24.6224 14.4614C24.5331 14.463 24.4439 14.4646 24.352 14.4663C24.2116 14.4689 24.0712 14.4718 23.9308 14.4755C23.2694 14.4928 22.8497 14.449 22.3148 14.0428C21.7589 13.4761 21.6684 12.8954 21.6672 12.1143C21.667 12.0571 21.6667 11.9999 21.6665 11.9409C21.6661 11.8204 21.666 11.6998 21.666 11.5793C21.6658 11.3966 21.6645 11.2139 21.6631 11.0313C21.6629 10.9135 21.6628 10.7957 21.6627 10.678C21.6622 10.6242 21.6617 10.5704 21.6611 10.515C21.664 9.83355 21.7933 9.32438 22.2575 8.81629C22.6955 8.40077 23.1504 8.27945 23.7344 8.26074C23.7873 8.25828 23.8401 8.25581 23.8946 8.25326C24.0233 8.24737 24.1521 8.24265 24.2809 8.23816C24.4978 7.6321 24.6675 7.03332 24.7563 6.39482C24.7654 6.33002 24.7745 6.26522 24.7839 6.19846C24.902 5.30595 24.9339 4.40611 24.9733 3.50736C24.9837 3.27655 24.9957 3.04586 25.0078 2.81514C25.0117 2.71169 25.0117 2.71169 25.0156 2.60615C25.0523 1.9382 25.2414 1.34093 25.7262 0.867068C26.5785 0.221568 27.5927 0.164085 28.4887 0.756694ZM26.2095 1.77942C26.0471 2.008 26.0051 2.13587 25.9906 2.41182C25.987 2.47757 25.9834 2.54332 25.9796 2.61106C25.9759 2.68279 25.9722 2.75451 25.9684 2.8284C25.9598 2.98206 25.9511 3.13572 25.9425 3.28938C25.9292 3.53015 25.9162 3.77092 25.9035 4.01172C25.761 6.69073 25.761 6.69073 25.4047 7.93865C25.3559 8.10196 25.3559 8.10196 25.3649 8.31043C26.5811 8.31043 27.7974 8.31043 29.0505 8.31043C28.9551 7.88117 28.8597 7.45191 28.7614 7.00965C28.7168 6.76732 28.6757 6.53055 28.644 6.28699C28.6353 6.22225 28.6266 6.1575 28.6177 6.0908C28.5577 5.58943 28.529 5.08839 28.5068 4.58423C28.5038 4.51662 28.5008 4.44901 28.4977 4.37934C28.4831 4.03686 28.4702 3.69439 28.4595 3.35176C28.4547 3.2236 28.45 3.09545 28.4452 2.96729C28.4432 2.87953 28.4432 2.87953 28.4411 2.78999C28.4224 2.31582 28.3256 1.97071 28.0071 1.60327C27.6719 1.3171 27.423 1.26822 26.9886 1.2778C26.6327 1.32342 26.4383 1.51967 26.2095 1.77942ZM22.8175 9.64283C22.5928 9.97195 22.6064 10.2915 22.6041 10.6808C22.6037 10.7353 22.6033 10.7899 22.6029 10.846C22.6022 10.9613 22.6017 11.0765 22.6015 11.1917C22.6008 11.3668 22.5985 11.5419 22.5962 11.7169C22.5958 11.8292 22.5954 11.9415 22.5951 12.0538C22.5938 12.1316 22.5938 12.1316 22.5924 12.2108C22.5943 12.6483 22.6973 12.9694 22.9621 13.3193C23.3682 13.6239 23.8507 13.6067 24.3367 13.6045C24.4057 13.6048 24.4748 13.605 24.5459 13.6053C24.773 13.6059 25.0001 13.6055 25.2272 13.605C25.3856 13.6051 25.5441 13.6053 25.7026 13.6054C26.0342 13.6056 26.3659 13.6053 26.6976 13.6047C27.1221 13.6038 27.5466 13.6043 27.9711 13.6052C28.2982 13.6057 28.6253 13.6055 28.9523 13.6052C29.1089 13.6051 29.2654 13.6052 29.4219 13.6055C29.6408 13.6059 29.8597 13.6053 30.0787 13.6045C30.1751 13.605 30.1751 13.605 30.2735 13.6054C30.8832 13.6019 30.8832 13.6019 31.4166 13.3374C31.7019 12.9439 31.7366 12.7111 31.739 12.232C31.7394 12.169 31.7398 12.1061 31.7402 12.0413C31.7409 11.9079 31.7414 11.7745 31.7416 11.6411C31.7423 11.4377 31.7446 11.2344 31.7469 11.0311C31.7473 10.9015 31.7477 10.7718 31.748 10.6421C31.7493 10.5513 31.7493 10.5513 31.7507 10.4587C31.7493 10.0998 31.7186 9.84293 31.5075 9.53894C31.1244 9.20696 30.8032 9.20882 30.3206 9.21362C30.2082 9.21304 30.2082 9.21304 30.0936 9.21244C29.8467 9.21154 29.5997 9.21273 29.3528 9.21403C29.1809 9.21402 29.009 9.21391 28.8372 9.21371C28.4772 9.21361 28.1173 9.21452 27.7574 9.21616C27.296 9.21822 26.8346 9.21802 26.3732 9.2171C26.0184 9.21659 25.6636 9.21716 25.3088 9.21806C25.1387 9.21838 24.9686 9.21841 24.7984 9.21812C24.5607 9.21791 24.3231 9.2191 24.0854 9.22068C24.0151 9.22036 23.9448 9.22003 23.8723 9.2197C23.4038 9.22486 23.1449 9.28817 22.8175 9.64283ZM26.0153 14.453C26.0078 15.9434 26.0322 17.4303 26.0731 18.92C26.0815 19.2274 26.0895 19.5347 26.0974 19.8421C26.1036 20.0835 26.11 20.325 26.1165 20.5664C26.1196 20.6797 26.1225 20.7931 26.1254 20.9064C26.095 22.7378 26.095 22.7378 26.9548 24.2811C27.0876 24.3621 27.0876 24.3621 27.2438 24.3534C27.5695 24.1587 27.719 23.8973 27.8761 23.563C27.898 23.5191 27.9199 23.4751 27.9425 23.4299C28.1474 23.0078 28.1923 22.6477 28.2047 22.1819C28.2062 22.1319 28.2076 22.0818 28.209 22.0303C28.2137 21.8645 28.2178 21.6986 28.2219 21.5328C28.2251 21.4149 28.2282 21.2971 28.2314 21.1793C28.2379 20.9307 28.2443 20.6821 28.2505 20.4335C28.2582 20.1237 28.2665 19.8138 28.275 19.504C28.3208 17.8196 28.334 16.1381 28.3278 14.453C27.5647 14.453 26.8015 14.453 26.0153 14.453Z" fill="white"/>
<path d="M9.78685 20.5016C9.90274 20.5013 10.0186 20.501 10.1345 20.5007C10.3767 20.5001 10.6189 20.5002 10.861 20.5005C11.1699 20.501 11.4788 20.4997 11.7877 20.4981C12.0268 20.497 12.266 20.4969 12.5051 20.4972C12.6189 20.4971 12.7328 20.4967 12.8466 20.496C14.3005 20.4878 14.3005 20.4878 14.8051 20.9434C14.8436 20.9767 14.8822 21.0099 14.9219 21.0442C15.1808 21.352 15.2748 21.6474 15.2767 22.0447C15.2776 22.1307 15.2785 22.2167 15.2795 22.3053C15.2794 22.3987 15.2793 22.492 15.2792 22.5882C15.2798 22.6883 15.2806 22.7884 15.2814 22.8886C15.2833 23.1597 15.2838 23.4309 15.284 23.702C15.2841 23.8717 15.2846 24.0413 15.2852 24.211C15.2872 24.8035 15.288 25.396 15.2879 25.9886C15.2877 26.5398 15.29 27.091 15.2935 27.6422C15.2963 28.1164 15.2975 28.5906 15.2973 29.0648C15.2973 29.3476 15.2979 29.6303 15.3002 29.9131C15.3023 30.1793 15.3023 30.4454 15.3007 30.7116C15.3004 30.855 15.3022 30.9983 15.3041 31.1417C15.2981 31.7089 15.2144 32.101 14.8141 32.5194C14.4169 32.8208 14.0394 32.8917 13.5531 32.8936C13.4984 32.894 13.4438 32.8945 13.3874 32.895C13.2064 32.8964 13.0254 32.8973 12.8443 32.898C12.7823 32.8983 12.7204 32.8986 12.6565 32.8989C12.3282 32.9004 12 32.9014 11.6717 32.9021C11.3337 32.9029 10.9957 32.9054 10.6577 32.9083C10.397 32.9102 10.1362 32.9108 9.87544 32.911C9.75092 32.9114 9.6264 32.9122 9.50189 32.9135C8.08225 32.9279 8.08225 32.9279 7.57626 32.4421C7.52819 32.3686 7.52819 32.3686 7.47915 32.2936C7.44561 32.2442 7.41208 32.1949 7.37753 32.144C7.22982 31.9003 7.21677 31.7515 7.21559 31.4655C7.21507 31.3797 7.21455 31.2939 7.21402 31.2055C7.21382 31.1108 7.21363 31.0162 7.21343 30.9187C7.21298 30.8184 7.2125 30.7181 7.21199 30.6178C7.21047 30.2878 7.20972 29.9579 7.209 29.628C7.20871 29.5144 7.20841 29.4008 7.20811 29.2872C7.20673 28.7535 7.2057 28.2197 7.2051 27.686C7.2044 27.07 7.2025 26.4541 7.19957 25.8382C7.19739 25.3621 7.19632 24.8859 7.19608 24.4098C7.19591 24.1255 7.19527 23.8412 7.19345 23.5568C7.19176 23.2891 7.19146 23.0215 7.1922 22.7538C7.19226 22.6091 7.19088 22.4645 7.18945 22.3199C7.19282 21.7372 7.25187 21.4107 7.63384 20.9623C7.67222 20.9292 7.7106 20.8962 7.75015 20.8621C7.78778 20.8281 7.82542 20.7941 7.86419 20.7591C8.44006 20.4245 9.14402 20.501 9.78685 20.5016ZM8.16567 21.8241C8.089 22.0477 8.08402 22.258 8.08326 22.493C8.08285 22.5699 8.08243 22.6468 8.08201 22.726C8.08193 22.81 8.08185 22.8939 8.08176 22.9805C8.08141 23.0692 8.08105 23.158 8.08068 23.2494C8.0798 23.4926 8.07926 23.7359 8.07894 23.9791C8.07873 24.1312 8.07843 24.2833 8.07811 24.4354C8.07712 24.9116 8.07642 25.3879 8.07614 25.8642C8.07582 26.4132 8.07455 26.9623 8.07246 27.5113C8.0709 27.9362 8.07017 28.3611 8.07007 28.786C8.07 29.0395 8.06957 29.2931 8.06828 29.5466C8.06686 29.8296 8.06718 30.1126 8.06765 30.3956C8.06698 30.4791 8.06632 30.5627 8.06563 30.6488C8.0679 31.0857 8.08752 31.4156 8.31021 31.7968C8.57961 31.9764 8.72135 31.9608 9.04341 31.9635C9.09573 31.9641 9.14804 31.9647 9.20194 31.9653C9.37499 31.967 9.54802 31.9677 9.72108 31.9681C9.84142 31.9688 9.96176 31.9694 10.0821 31.9701C10.3345 31.9713 10.5868 31.9719 10.8391 31.9721C11.1623 31.9725 11.4854 31.9752 11.8085 31.9785C12.0571 31.9806 12.3057 31.9812 12.5543 31.9812C12.6734 31.9815 12.7925 31.9824 12.9116 31.9839C13.0784 31.9859 13.245 31.9855 13.4118 31.9846C13.5066 31.985 13.6015 31.9854 13.6992 31.9857C13.9511 31.9555 13.9511 31.9555 14.1582 31.8162C14.3949 31.4436 14.3579 31.0806 14.3539 30.648C14.3544 30.5533 14.3549 30.4585 14.3554 30.3609C14.3568 30.1015 14.3558 29.8422 14.3544 29.5829C14.3532 29.3113 14.3539 29.0398 14.3542 28.7682C14.3546 28.3123 14.3534 27.8564 14.3514 27.4005C14.3491 26.8734 14.3491 26.3464 14.3503 25.8193C14.3515 25.3121 14.351 24.8049 14.3497 24.2977C14.3493 24.082 14.3493 23.8662 14.3499 23.6504C14.3505 23.3492 14.3488 23.048 14.3468 22.7468C14.3473 22.6572 14.3477 22.5675 14.3482 22.4752C14.3473 22.3932 14.3464 22.3113 14.3454 22.2268C14.3452 22.1556 14.345 22.0844 14.3448 22.0111C14.2978 21.7705 14.2088 21.6859 14.0192 21.5351C13.77 21.452 13.5754 21.4526 13.3125 21.4512C13.2383 21.4506 13.2383 21.4506 13.1625 21.4501C12.9989 21.449 12.8352 21.4485 12.6715 21.4481C12.5577 21.4477 12.4438 21.4473 12.33 21.4469C12.0912 21.4461 11.8525 21.4457 11.6137 21.4454C11.3081 21.445 11.0025 21.4433 10.6969 21.4413C10.4617 21.4399 10.2265 21.4395 9.99128 21.4394C9.87863 21.4392 9.76598 21.4386 9.65332 21.4377C9.49557 21.4364 9.33787 21.4366 9.18011 21.437C9.09042 21.4368 9.00072 21.4365 8.90831 21.4362C8.58016 21.4731 8.39586 21.5939 8.16567 21.8241Z" fill="white"/>
<path d="M27.8145 26.4176C28.0943 26.6369 28.2819 26.8787 28.4863 27.1673C28.5468 27.2521 28.5468 27.2521 28.6084 27.3386C29.389 28.4624 30.1881 29.7518 29.9452 31.169C29.7666 31.8833 29.3738 32.4707 28.7619 32.8808C27.9581 33.2909 27.2202 33.4441 26.341 33.2015C25.6468 32.9685 25.0825 32.5842 24.715 31.9414C24.3558 31.186 24.2599 30.4989 24.4937 29.6808C24.8416 28.7377 25.3563 27.9083 25.9435 27.0996C25.9884 27.0349 26.0333 26.9703 26.0796 26.9037C26.5287 26.2814 27.1074 26.0354 27.8145 26.4176ZM27.0997 27.1719C26.2948 28.0492 25.3514 29.3824 25.2829 30.6053C25.3136 31.1073 25.5143 31.5428 25.8803 31.8872C26.284 32.2036 26.7906 32.4342 27.3117 32.4026C27.9031 32.2931 28.4317 32.0171 28.7822 31.5213C29.026 31.0894 29.1062 30.6414 29.0131 30.1534C28.7442 29.2432 28.2073 28.4326 27.6463 27.6777C27.6087 27.6271 27.5711 27.5764 27.5323 27.5242C27.4402 27.4037 27.3427 27.2873 27.2443 27.1719C27.1966 27.1719 27.1489 27.1719 27.0997 27.1719Z" fill="white"/>
</g>
<defs>
<clipPath id="clip0_2893_3710">
<rect width="37" height="37" fill="white"/>
</clipPath>
</defs>
</svg>
