<svg width="40" height="40" viewBox="0 0 40 40" fill="none" xmlns="http://www.w3.org/2000/svg">
<path d="M19.5054 32.85H10.8054L10.0054 17.35C9.90541 15.75 11.2054 14.45 12.7054 14.45H17.6054C19.2054 14.45 20.4054 15.75 20.3054 17.35L19.5054 32.85Z" stroke="white" stroke-width="1.5" stroke-miterlimit="10" stroke-linecap="round" stroke-linejoin="round"/>
<path d="M18.0056 10.55H12.3057V14.55H18.0056V10.55Z" stroke="white" stroke-width="1.5" stroke-miterlimit="10" stroke-linecap="round" stroke-linejoin="round"/>
<path d="M17.0059 28.6501H13.5059L12.5059 19.05H17.9059L17.0059 28.6501Z" stroke="white" stroke-width="1.5" stroke-miterlimit="10" stroke-linecap="round" stroke-linejoin="round"/>
<path d="M19.6055 31.1501H29.6055V16.5501C29.6055 15.0501 28.4055 13.8501 26.9055 13.8501H22.6055C21.4055 13.8501 20.3055 14.6501 20.0055 15.8501" stroke="white" stroke-width="1.5" stroke-miterlimit="10" stroke-linecap="round" stroke-linejoin="round"/>
<path d="M27.8059 13.85H21.5059V8.45C23.6059 7.85 25.7059 7.85 27.8059 8.45V13.85Z" stroke="white" stroke-width="1.5" stroke-miterlimit="10" stroke-linecap="round" stroke-linejoin="round"/>
</svg>
