<svg width="39" height="40" viewBox="0 0 39 40" fill="none" xmlns="http://www.w3.org/2000/svg">
<path d="M19.1568 3.99426C19.9874 4.70372 20.74 5.53929 21.023 6.64075C21.0275 6.79693 21.0285 6.95335 21.023 7.1095C21.0977 7.1248 21.1725 7.14011 21.2494 7.15588C23.0123 7.54505 24.3256 8.60733 25.3318 10.1374C25.5578 10.5 25.6795 10.8174 25.7719 11.2364C25.8282 11.4281 25.9095 11.587 26.0027 11.7628C26.488 12.7141 26.5972 13.777 26.5978 14.8341C26.5988 14.9152 26.5997 14.9962 26.6007 15.0798C26.6015 15.5132 26.5685 15.8968 26.4646 16.3163C26.4062 16.6107 26.4213 16.9034 26.4312 17.2023C26.4351 17.3222 26.4383 17.4421 26.4407 17.5621C26.4425 17.6141 26.4443 17.666 26.4461 17.7196C26.4312 17.8907 26.4312 17.8907 26.3401 18.109C26.2576 18.4466 26.3638 18.6484 26.5092 18.9457C26.5348 19.0013 26.5605 19.0569 26.5869 19.1142C26.6418 19.233 26.6974 19.3515 26.7535 19.4697C26.8995 19.7776 27.0402 20.088 27.1816 20.3981C27.2095 20.4589 27.2374 20.5196 27.2661 20.5823C28.1066 22.421 28.8695 24.5325 28.2076 26.5596C27.942 27.1865 27.5101 27.6594 27.0626 28.1562C26.5631 28.6782 26.5631 28.6782 26.2789 29.297C26.3444 29.3025 26.41 29.3079 26.4775 29.3135C26.7267 29.3348 26.9759 29.3571 27.225 29.38C27.3317 29.3896 27.4384 29.3988 27.5451 29.4077C28.8424 29.5157 30.2359 29.7444 31.1539 30.7814C31.7616 31.5994 31.9533 32.5926 32.0679 33.5939C32.0765 33.6665 32.085 33.7391 32.0938 33.8139C32.1431 34.3121 32.1582 34.8122 32.1679 35.3126C32.1702 35.3771 32.1724 35.4417 32.1748 35.5081C32.1754 35.5693 32.1759 35.6305 32.1765 35.6935C32.1782 35.7754 32.1782 35.7754 32.1799 35.8589C32.1257 36.0964 32.0265 36.1791 31.8394 36.3282C31.6322 36.3602 31.4552 36.3729 31.2478 36.3718C31.1577 36.3731 31.1577 36.3731 31.0657 36.3745C30.8635 36.3772 30.6615 36.3776 30.4593 36.3781C30.314 36.3795 30.1686 36.3811 30.0233 36.3828C29.6255 36.3871 29.2278 36.3895 28.8301 36.3915C28.4074 36.3939 27.9848 36.3982 27.5622 36.4022C26.7475 36.4096 25.9328 36.4154 25.118 36.4205C24.4643 36.4246 23.8105 36.4293 23.1567 36.4344C23.0645 36.4352 22.9723 36.4359 22.8773 36.4366C22.691 36.4381 22.5048 36.4395 22.3186 36.441C20.3248 36.4565 18.3311 36.4688 16.3373 36.4802C15.6102 36.4844 14.883 36.4893 14.1559 36.4943C12.9909 36.5022 11.8259 36.5084 10.6609 36.5119C10.283 36.513 9.9052 36.5148 9.52735 36.5171C9.0959 36.5196 8.66447 36.5206 8.233 36.5203C8.0805 36.5204 7.928 36.5211 7.7755 36.5223C7.57304 36.5238 7.37067 36.5234 7.16821 36.5224C7.11028 36.5233 7.05234 36.5242 6.99264 36.5251C6.71585 36.5217 6.56075 36.4912 6.32424 36.3386C6.12813 36.1275 6.12223 36.0261 6.12427 35.7377C6.12429 35.6519 6.12431 35.5662 6.12433 35.4778C6.12784 35.3404 6.12784 35.3404 6.13141 35.2003C6.13352 35.059 6.13352 35.059 6.13567 34.9148C6.17367 33.289 6.33074 31.6368 7.45222 30.3914C8.4556 29.4107 9.87952 29.2961 11.1921 29.253C11.2878 29.2497 11.3835 29.2463 11.482 29.2428C11.717 29.2346 11.9521 29.2266 12.1871 29.2189C11.6671 28.5088 11.6671 28.5088 11.1016 27.837C10.2422 26.863 9.98632 25.7693 10.0413 24.4786C10.1462 23.0111 10.686 21.6282 11.287 20.309C11.3439 20.1828 11.4007 20.0567 11.4576 19.9305C11.5704 19.6804 11.6865 19.4323 11.8047 19.1847C12.1463 18.4958 12.1463 18.4958 12.1124 17.7479C12.0634 17.6382 12.0123 17.5294 11.9586 17.422C11.4142 15.5065 11.5754 13.1743 12.3514 11.3584C12.5244 10.9349 12.4707 10.6469 12.3767 10.2096C12.2591 9.61743 12.2374 9.03886 12.2392 8.43705C12.2394 8.27128 12.2376 8.10563 12.2357 7.93988C12.2312 6.97873 12.3746 6.33263 13.025 5.62512C14.4129 4.28295 17.3795 2.63969 19.1568 3.99426ZM13.5486 6.64898C13.1362 7.30206 13.1461 8.09545 13.163 8.84778C13.1641 8.9367 13.1651 9.02563 13.1662 9.11725C13.1688 9.33345 13.1725 9.54958 13.1773 9.76575C13.3972 9.54364 13.6081 9.32036 13.8057 9.07727C14.8304 7.87524 16.2214 7.05451 17.7899 6.9389C18.2493 6.92643 18.6726 7.00415 19.1187 7.1095C19.2456 7.13589 19.3725 7.16202 19.4996 7.18762C19.4996 7.16184 19.4996 7.13606 19.4996 7.1095C19.8012 7.08371 20.1029 7.05793 20.4136 7.03137C20.1015 6.58767 19.7727 6.19139 19.3948 5.80578C19.3475 5.75598 19.3002 5.70618 19.2514 5.65487C18.805 5.1965 18.3103 4.79009 17.6723 4.68487C16.237 4.70206 14.5741 5.69968 13.5486 6.64898ZM15.0816 9.297C15.0118 9.36135 15.0118 9.36135 14.9406 9.427C13.8476 10.4661 13.0648 12.1548 12.9488 13.672C12.9975 13.622 13.0462 13.5721 13.0964 13.5206C13.1316 13.4849 13.1669 13.4491 13.2032 13.4123C13.2946 13.3176 13.3843 13.2211 13.4728 13.1236C14.9311 11.5508 16.9971 10.8122 19.0425 10.4689C19.1631 10.4477 19.1631 10.4477 19.2862 10.426C20.2934 10.2716 21.3017 10.2953 22.3179 10.3029C22.5032 10.3036 22.6885 10.3044 22.8738 10.305C23.3233 10.3067 23.7727 10.3093 24.2222 10.3126C23.6562 9.09427 22.3298 8.20946 21.1286 7.75036C18.7605 6.90027 16.8754 7.51032 15.0816 9.297ZM21.6562 11.2111C21.5747 11.2166 21.5747 11.2166 21.4915 11.2223C21.3607 11.2314 21.2299 11.2407 21.0992 11.2501C21.3195 11.4376 21.5514 11.5629 21.8098 11.6875C23.1672 12.3432 24.2702 13.3509 25.3612 14.3907C25.4921 14.54 25.4921 14.54 25.5933 14.5314C25.5822 13.7979 25.499 13.1158 25.3315 12.4025C25.3149 12.3318 25.2984 12.2611 25.2813 12.1883C25.1826 11.7367 25.1826 11.7367 24.9839 11.3282C24.8075 11.2705 24.8075 11.2705 24.5986 11.2635C24.5204 11.2575 24.4422 11.2515 24.3616 11.2452C24.2795 11.2404 24.1974 11.2356 24.1127 11.2306C23.9935 11.2215 23.9935 11.2215 23.8719 11.2123C23.1311 11.1595 22.3967 11.1571 21.6562 11.2111ZM19.1177 11.5067C18.9562 11.5347 18.7975 11.5692 18.6379 11.6066C18.5794 11.6202 18.5208 11.6338 18.4605 11.6478C16.5107 12.1264 14.654 13.1056 13.5671 14.893C13.0486 15.7557 13.0486 15.7557 13.0012 16.7384C13.0318 16.8628 13.0642 16.9869 13.1011 17.1095C13.1711 17.105 13.241 17.1004 13.313 17.0958C14.0096 17.0695 14.3885 17.1415 14.9022 17.6158C15.2135 17.9737 15.1154 18.5911 15.0962 19.0435C15.0542 19.5486 14.9063 20.0366 14.7722 20.5226C14.7273 20.6883 14.6829 20.8542 14.6394 21.0203C14.6005 21.1688 14.56 21.3168 14.5195 21.4649C14.4721 21.7197 14.4704 21.8651 14.5484 22.1095C14.6692 22.2811 14.7884 22.4354 14.9245 22.5929C14.9623 22.6373 15 22.6818 15.0389 22.7276C15.1536 22.8612 15.2696 22.9934 15.3863 23.1251C15.4804 23.2316 15.4804 23.2316 15.5764 23.3403C16.4405 24.2702 17.6046 25.1076 18.8935 25.1826C20.2692 25.2135 21.3604 24.7478 22.3659 23.7761C23.4279 22.8074 23.4279 22.8074 24.0238 21.5602C23.9729 21.0352 23.8062 20.5432 23.6567 20.0401C23.441 19.289 23.27 18.5682 23.5367 17.8126C23.7397 17.478 23.9362 17.318 24.2984 17.1876C24.628 17.1461 24.9569 17.1241 25.2886 17.1095C25.3892 16.8517 25.4897 16.5939 25.5933 16.3282C25.3246 16.0014 25.0538 15.6897 24.7554 15.3907C24.6948 15.3219 24.6948 15.3219 24.6328 15.2516C23.7723 14.3054 22.6684 13.5888 21.624 12.8754C21.1517 12.5486 20.714 12.1884 20.2937 11.7939C20.0423 11.5699 19.9213 11.4893 19.5805 11.4491C19.4248 11.4616 19.2723 11.4843 19.1177 11.5067ZM13.482 18.2032C11.561 21.8924 11.561 21.8924 11.4236 25.9349C11.6494 26.6217 12.0313 27.1362 12.4884 27.6747C13.4139 28.7714 13.6704 29.9872 13.6343 31.4064C13.6155 31.6733 13.5845 31.9372 13.5486 32.2023C13.5391 32.2745 13.5295 32.3466 13.5197 32.421C13.4027 33.2382 13.1992 34.0328 12.9871 34.8287C12.9403 35.0089 12.9403 35.0089 12.9488 35.2345C14.0045 35.2345 15.0603 35.2345 16.148 35.2345C16.0785 34.191 16.0785 34.191 16.0088 33.1475C15.9627 32.4575 15.917 31.7675 15.8758 31.0771C15.8693 30.971 15.8628 30.865 15.8564 30.759C15.8449 30.5686 15.8338 30.3783 15.8231 30.1879C15.7271 28.6154 15.2209 27.5675 14.2718 26.3421C13.3281 25.1123 13.2198 23.9524 13.3297 22.422C13.4021 21.8692 13.5273 21.3284 13.6548 20.7866C13.7529 20.3648 13.8412 19.9408 13.9295 19.5167C13.9468 19.4378 13.9641 19.3589 13.9819 19.2776C13.9974 19.2039 14.0129 19.1303 14.0289 19.0544C14.0498 18.9575 14.0498 18.9575 14.0711 18.8587C14.094 18.6475 14.0694 18.4858 14.0152 18.2814C13.9295 18.1754 13.9295 18.1754 13.7058 18.1984C13.595 18.2008 13.595 18.2008 13.482 18.2032ZM24.4507 18.3595C24.4967 18.8389 24.5667 19.3023 24.665 19.7731C24.6848 19.8705 24.6848 19.8705 24.7051 19.9699C24.747 20.1754 24.7892 20.3807 24.8316 20.5861C24.8875 20.857 24.943 21.128 24.9982 21.399C25.0109 21.4599 25.0236 21.5207 25.0367 21.5833C25.3464 23.1042 25.4022 24.5872 24.5555 25.9327C24.3792 26.1904 24.1961 26.442 24.0101 26.6923C23.579 27.2751 23.2283 27.8122 23.0035 28.5157C22.97 28.6132 22.97 28.6132 22.9359 28.7126C22.5033 30.1217 22.6035 31.6838 22.6131 33.1398C22.6139 33.3438 22.6146 33.5478 22.6152 33.7518C22.6167 34.246 22.6197 34.7402 22.6226 35.2345C23.5527 35.2603 24.4827 35.2861 25.441 35.3126C25.3813 34.9823 25.3216 34.652 25.2601 34.3116C24.497 29.9597 24.497 29.9597 25.3571 28.4388C25.5929 28.0918 25.8645 27.7814 26.1391 27.4663C26.8258 26.6737 27.2559 25.9224 27.2691 24.8439C27.1767 23.3934 26.6121 22.0659 26.0504 20.7521C25.9892 20.6073 25.9281 20.4626 25.8671 20.3178C25.5791 19.636 25.288 18.9558 24.9839 18.2814C24.7075 18.2695 24.7075 18.2695 24.4507 18.3595ZM24.1461 22.6564C24.121 22.7141 24.096 22.7718 24.0702 22.8312C23.6187 23.8189 22.9377 24.6535 22.0894 25.3126C22.1366 25.6207 22.2848 25.8245 22.4608 26.0743C22.514 26.1513 22.5672 26.2282 22.622 26.3075C22.6725 26.3659 22.723 26.4243 22.775 26.4845C22.8504 26.4845 22.9258 26.4845 23.0035 26.4845C23.1519 26.312 23.2826 26.1434 23.4129 25.9571C23.4503 25.9042 23.4877 25.8512 23.5262 25.7966C24.0766 24.9945 24.3401 24.2297 24.2651 23.2521C24.2591 23.1658 24.2591 23.1658 24.253 23.0778C24.2432 22.9373 24.2328 22.7968 24.2222 22.6564C24.1971 22.6564 24.172 22.6564 24.1461 22.6564ZM14.2437 23.2814C14.1508 24.4753 14.6546 25.2459 15.3101 26.172C15.365 26.26 15.4196 26.3481 15.4741 26.4363C15.5437 26.5375 15.5437 26.5375 15.6148 26.6407C15.6651 26.6407 15.7154 26.6407 15.7672 26.6407C15.8353 26.4654 15.9016 26.2897 15.9671 26.1134C15.9865 26.0639 16.006 26.0143 16.026 25.9633C16.1334 25.6722 16.1334 25.6722 16.1001 25.3706C15.9856 25.2214 15.8687 25.1094 15.7243 24.9904C15.1539 24.4936 14.7005 23.9401 14.3199 23.2814C14.2948 23.2814 14.2696 23.2814 14.2437 23.2814ZM21.0221 25.9224C19.764 26.4385 18.5026 26.407 17.2144 26.0157C17.1812 26.0827 17.148 26.1497 17.1138 26.2187C17.0685 26.308 17.0231 26.3973 16.9764 26.4894C16.9527 26.5362 16.929 26.5831 16.9046 26.6314C16.764 26.9007 16.6214 27.1107 16.4051 27.3195C16.2887 27.4374 16.2887 27.4374 16.2242 27.5782C16.2518 27.8554 16.3574 28.1002 16.4527 28.3595C16.8224 29.7585 16.6068 31.3611 16.556 32.798C16.5284 33.6119 16.5289 34.4185 16.5289 35.2345C18.389 35.2345 20.2491 35.2345 22.1656 35.2345C22.1656 34.4853 22.1375 33.7929 22.0513 33.0568C21.9596 32.1931 21.9118 31.3377 21.9085 30.4689C21.9075 30.368 21.9064 30.2671 21.9054 30.1631C21.9093 29.2959 22.0686 28.4827 22.3179 27.6564C22.252 27.6113 22.186 27.5661 22.118 27.5196C21.6451 27.1185 21.4313 26.443 21.2515 25.8595C21.1596 25.8547 21.1596 25.8547 21.0221 25.9224ZM11.0873 29.8585C10.9493 29.8927 10.9493 29.8927 10.8084 29.9276C9.66395 30.22 8.51102 30.5546 7.83903 31.6145C7.33238 32.5292 7.30693 33.6877 7.31059 34.7151C7.3107 34.7727 7.3108 34.8304 7.31092 34.8897C7.31119 35.0307 7.31162 35.1717 7.31208 35.3126C7.7804 35.3146 8.24873 35.316 8.71705 35.3169C8.87555 35.3173 9.03404 35.3178 9.19253 35.3185C10.2947 35.3232 11.3912 35.2963 12.4918 35.2345C12.5247 34.7815 12.5572 34.3285 12.5894 33.8755C12.6004 33.7217 12.6115 33.5679 12.6226 33.4141C12.6388 33.1918 12.6546 32.9696 12.6703 32.7473C12.6753 32.6796 12.6803 32.6118 12.6854 32.542C12.7319 31.8756 12.7416 31.2243 12.6536 30.5616C12.6413 30.4645 12.6289 30.3673 12.6161 30.2671C12.573 30.028 12.5131 29.8302 12.4156 29.6095C11.9557 29.6095 11.5319 29.7444 11.0873 29.8585ZM26.0504 29.6876C25.8031 30.3807 25.8115 31.0344 25.8144 31.7649C25.8145 31.855 25.8146 31.9451 25.8146 32.0379C25.815 32.3726 25.8161 32.7074 25.8171 33.0421C25.8186 33.7914 25.8202 34.5406 25.8218 35.3126C27.6065 35.3126 29.3913 35.3126 31.23 35.3126C31.2105 33.0093 31.2105 33.0093 30.2014 31.0234C29.0855 30.0615 27.4415 29.8841 26.0504 29.6876Z" fill="white"/>
<path d="M7.76953 15.3126C8.02197 15.5014 8.06057 15.7286 8.13611 16.0303C8.36228 16.819 8.83368 17.4011 9.52208 17.8296C9.77888 17.966 10.0382 18.0689 10.3118 18.1641C10.5879 18.2813 10.5879 18.2813 10.7069 18.418C10.7569 18.6815 10.7284 18.8815 10.6641 19.1407C10.4327 19.3645 10.1755 19.4539 9.87854 19.5606C9.12026 19.8552 8.70455 20.2025 8.30273 20.9376C8.19971 21.1987 8.10746 21.4597 8.02364 21.728C7.9036 21.9936 7.77975 22.1086 7.54102 22.2657C7.32618 22.2604 7.21305 22.2293 7.04292 22.0951C6.89263 21.9034 6.85742 21.7222 6.79834 21.4844C6.66689 21.0154 6.47709 20.653 6.20712 20.2533C6.09375 20.0782 6.09375 20.0782 6.01758 19.8438C5.88758 19.7627 5.88758 19.7627 5.71289 19.6876C5.53105 19.5881 5.35036 19.4873 5.17017 19.3848C5.12195 19.3583 5.07374 19.3318 5.02407 19.3046C4.7636 19.1554 4.58936 19.0484 4.49414 18.7501C4.7743 18.4933 5.04592 18.2646 5.36536 18.0616C6.20359 17.4948 6.5367 16.7341 6.82214 15.7764C6.88671 15.5748 6.93137 15.4691 7.06494 15.3028C7.3229 15.1999 7.50514 15.2435 7.76953 15.3126ZM7.38867 17.5001C7.29683 17.6079 7.20669 17.7172 7.11731 17.8272C6.66792 18.3506 6.19775 18.6064 5.56055 18.8282C5.75638 18.9621 5.93868 19.0588 6.15088 19.1602C6.65343 19.416 7.05648 19.7093 7.3125 20.2344C7.62097 20.129 7.6737 19.9655 7.8457 19.6876C8.09641 19.3202 8.40655 19.0841 8.75977 18.8282C8.70949 18.7879 8.65922 18.7476 8.60742 18.7061C7.76401 18.0033 7.76401 18.0033 7.46484 17.5001C7.43971 17.5001 7.41457 17.5001 7.38867 17.5001Z" fill="white"/>
<path d="M31.459 13.6718C31.6849 13.7973 31.7531 13.8773 31.844 14.1265C31.8646 14.2117 31.8852 14.2969 31.9065 14.3847C32.1326 15.1907 32.5107 15.7299 33.2109 16.1718C33.4642 16.2986 33.7186 16.4161 33.9789 16.5267C34.2068 16.6435 34.3446 16.7521 34.5059 16.9531C34.5535 17.1826 34.5535 17.1826 34.5059 17.4218C34.23 17.7546 33.9113 17.8776 33.5204 18.0419C32.7525 18.3652 32.3595 18.7653 31.9922 19.5312C31.8861 19.8004 31.787 20.0705 31.6935 20.3445C31.6113 20.5468 31.6113 20.5468 31.459 20.6249C31.1939 20.6545 31.0568 20.6693 30.8434 20.4968C30.671 20.2793 30.6244 20.1099 30.5592 19.8388C30.317 18.9753 29.8796 18.2924 29.1143 17.8448C28.9689 17.7643 28.8225 17.6855 28.6751 17.6089C28.5029 17.5085 28.3838 17.4229 28.2598 17.2656C28.2598 17.214 28.2598 17.1624 28.2598 17.1093C28.4496 16.9705 28.6404 16.839 28.8358 16.7089C29.8094 16.038 30.3611 15.2565 30.641 14.067C30.7909 13.6385 31.0456 13.6272 31.459 13.6718ZM31.1543 15.9374C31.0697 16.0444 30.9857 16.152 30.902 16.2597C30.5401 16.6859 30.129 16.8867 29.6309 17.1093C29.529 17.1607 29.4272 17.2125 29.3262 17.2656C29.4005 17.3023 29.4748 17.3391 29.5514 17.377C29.6493 17.4261 29.7472 17.4752 29.8451 17.5244C29.894 17.5485 29.943 17.5726 29.9934 17.5974C30.2405 17.7222 30.4342 17.8398 30.6211 18.0468C30.6714 18.0468 30.7216 18.0468 30.7734 18.0468C30.7923 18.0919 30.8111 18.137 30.8306 18.1835C30.9385 18.3828 31.0714 18.514 31.2305 18.6718C31.2665 18.6161 31.3025 18.5604 31.3397 18.5031C31.6825 17.9938 32.0257 17.6132 32.5254 17.2656C32.3314 17.0626 32.1326 16.8726 31.9208 16.6894C31.6592 16.4576 31.4468 16.2131 31.2305 15.9374C31.2053 15.9374 31.1802 15.9374 31.1543 15.9374Z" fill="white"/>
</svg>
