<svg width="40" height="40" viewBox="0 0 40 40" fill="none" xmlns="http://www.w3.org/2000/svg">
<g clip-path="url(#clip0_2893_3745)">
<path d="M23.4878 11.428C24.7743 11.428 26.0766 10.4312 26.0766 8.52611C26.0766 7.15986 25.1538 5.32377 23.9757 4.34597C23.6928 4.111 23.2827 4.111 22.9998 4.34597C21.8218 5.32377 20.8991 7.15986 20.8991 8.52611C20.8991 10.4311 22.2014 11.428 23.4878 11.428ZM23.4877 6.02145C24.0905 6.76005 24.5485 7.79761 24.5485 8.52611C24.5485 9.54016 23.9772 9.90007 23.4877 9.90007C22.9984 9.90007 22.427 9.54024 22.427 8.52611C22.4271 7.79753 22.885 6.76005 23.4877 6.02145ZM32.5112 28.5754C32.5112 27.2028 31.3945 26.0861 30.0219 26.0861C28.6495 26.0861 27.5329 27.2028 27.5329 28.5754C27.5329 29.948 28.6495 31.0646 30.0219 31.0646C31.3945 31.0646 32.5112 29.9479 32.5112 28.5754ZM29.0608 28.5754C29.0608 28.0453 29.492 27.6141 30.0219 27.6141C30.552 27.6141 30.9833 28.0453 30.9833 28.5754C30.9833 29.1054 30.552 29.5366 30.0219 29.5366C29.492 29.5366 29.0608 29.1054 29.0608 28.5754ZM18.4411 27.7209C18.4648 28.1422 18.1426 28.503 17.7213 28.5268C16.993 28.5678 16.2366 28.5887 15.473 28.5887C14.7095 28.5887 13.953 28.5678 13.2245 28.5268C12.8033 28.503 12.481 28.1422 12.5048 27.7209C12.5286 27.2997 12.8902 26.9766 13.3106 27.0013C14.7102 27.0802 16.2356 27.0802 17.6351 27.0013C18.0559 26.9784 18.4173 27.2996 18.4411 27.7209ZM38.9997 22.4097V31.39C38.9998 31.3975 39 31.4051 39 31.4127C39 32.364 37.9544 32.9866 35.6095 33.4314C33.7784 33.7788 31.3539 33.9701 28.7826 33.9701C27.8207 33.9701 26.8691 33.9431 25.9543 33.8897C25.5331 33.8652 25.2116 33.5038 25.2361 33.0826C25.2607 32.6613 25.6206 32.3382 26.0433 32.3644C26.9286 32.4159 27.8503 32.4421 28.7827 32.4421C33.9072 32.4421 36.9047 31.6916 37.4718 31.261V23.912C36.9789 24.096 36.361 24.2568 35.6096 24.3993C33.7786 24.7467 31.354 24.938 28.7827 24.938C27.8218 24.938 26.8702 24.9109 25.9544 24.8575C25.5332 24.833 25.2117 24.4717 25.2362 24.0504C25.2607 23.6292 25.6207 23.3078 26.0434 23.3322C26.9296 23.3838 27.8513 23.4101 28.7828 23.4101C33.9073 23.4101 36.9048 22.6595 37.4719 22.229V20.9633C36.9789 21.1473 36.3611 21.3082 35.6096 21.4506C33.7786 21.798 31.354 21.9893 28.7828 21.9893C27.8218 21.9893 26.8703 21.9622 25.9545 21.9089C25.5333 21.8843 25.2118 21.523 25.2363 21.1018C25.2608 20.6805 25.6207 20.3585 26.0435 20.3835C26.9297 20.4351 27.8514 20.4614 28.7828 20.4614C33.3456 20.4614 36.2223 19.8663 37.1984 19.432C36.2223 18.9976 33.3456 18.4025 28.7828 18.4025C27.8504 18.4025 26.9288 18.4288 26.0435 18.4803C25.6218 18.5053 25.2608 18.1833 25.2363 17.7621C25.2118 17.3409 25.5333 16.9795 25.9545 16.955C26.8693 16.9016 27.8209 16.8746 28.7828 16.8746C31.3541 16.8746 33.7786 17.0659 35.6096 17.4133C37.9545 17.8581 39.0002 18.4807 39.0002 19.432C39.0002 19.4567 38.9995 19.4813 38.9981 19.5056C38.9992 19.5231 38.9998 19.5408 38.9998 19.5585V22.3579C39 22.3655 39.0002 22.373 39.0002 22.3807C39 22.3902 38.9998 22.3999 38.9997 22.4097ZM15.473 25.782C16.8455 25.782 17.9622 24.6653 17.9622 23.2927C17.9622 21.9201 16.8455 20.8035 15.473 20.8035C14.1004 20.8035 12.9837 21.9201 12.9837 23.2927C12.9837 24.6653 14.1004 25.782 15.473 25.782ZM15.473 22.3314C16.003 22.3314 16.4343 22.7626 16.4343 23.2927C16.4343 23.8228 16.003 24.254 15.473 24.254C14.9429 24.254 14.5117 23.8228 14.5117 23.2927C14.5118 22.7626 14.943 22.3314 15.473 22.3314ZM20.9796 12.3344H18.8067V10.1617C18.8067 8.5862 17.7083 7.26257 16.2371 6.91641V5.69803H19.7685C20.1905 5.69803 20.5325 5.35603 20.5325 4.93406C20.5325 4.51209 20.1905 4.17008 19.7685 4.17008H15.5107C15.4858 4.16889 15.4604 4.16889 15.4356 4.17008H13.443C13.0211 4.17008 12.6791 4.51209 12.6791 4.93406C12.6791 5.35603 13.0211 5.69803 13.443 5.69803H14.7091V6.91632C13.2378 7.26257 12.1394 8.58629 12.1394 10.1617V12.3344H9.96652C8.33076 12.3344 7 13.6652 7 15.301V33.6044C7 34.7021 8.53882 35.1347 9.87951 35.389C11.3811 35.6738 13.3675 35.8307 15.473 35.8307C17.5784 35.8307 19.565 35.6738 21.0665 35.389C22.4071 35.1347 23.946 34.702 23.946 33.6044V15.301C23.946 13.6652 22.6153 12.3344 20.9796 12.3344ZM13.6673 10.1617C13.6673 9.16606 14.4774 8.35599 15.473 8.35599C16.4686 8.35599 17.2786 9.16606 17.2786 10.1617V12.3344H13.6673V10.1617ZM22.4181 33.4044C21.8538 33.7506 19.4798 34.3028 15.473 34.3028C11.4662 34.3028 9.09219 33.7506 8.52795 33.4044V30.9125C8.95705 31.0565 9.42945 31.1619 9.87951 31.2473C11.381 31.5322 13.3675 31.689 15.473 31.689C17.5784 31.689 19.565 31.5322 21.0665 31.2473C21.5167 31.1619 21.989 31.0565 22.4181 30.9125V33.4044ZM22.4181 29.2627C21.8539 29.6088 19.4798 30.1611 15.473 30.1611C11.4662 30.1611 9.09211 29.6088 8.52795 29.2627V18.6772C8.95705 18.8213 9.42936 18.9267 9.87951 19.0121C11.3811 19.2969 13.3676 19.4539 15.4731 19.4539C17.5785 19.4539 19.565 19.2969 21.0666 19.0121C21.5167 18.9267 21.9891 18.8213 22.4181 18.6772L22.4181 29.2627ZM22.4181 17.0275C21.8538 17.3736 19.4797 17.9259 15.473 17.9259C11.4662 17.9259 9.09219 17.3736 8.52795 17.0275V15.3009C8.52795 14.5076 9.17334 13.8623 9.96652 13.8623H20.9796C21.7728 13.8623 22.4181 14.5077 22.4181 15.3009L22.4181 17.0275Z" fill="white"/>
</g>
<defs>
<clipPath id="clip0_2893_3745">
<rect width="32" height="32" fill="white" transform="translate(7 4)"/>
</clipPath>
</defs>
</svg>
