<svg width="56" height="56" viewBox="0 0 56 56" fill="none" xmlns="http://www.w3.org/2000/svg">
<path d="M0 28C0 12.536 12.536 0 28 0C43.464 0 56 12.536 56 28C56 43.464 43.464 56 28 56C12.536 56 0 43.464 0 28Z" fill="white"/>
<g clip-path="url(#clip0_2893_3635)">
<path d="M24.25 20.75V18.25M24.25 18.25H31.75M24.25 18.25H21.75C20.3693 18.25 19.25 17.1307 19.25 15.75C19.25 14.3693 20.3693 13.25 21.75 13.25C23.1307 13.25 24.25 14.3693 24.25 15.75V18.25ZM31.75 18.25C31.75 19.6307 32.8693 20.75 34.25 20.75H39.25V15.75H34.25C32.8693 15.75 31.75 16.8693 31.75 18.25ZM31.75 33.25V40.25C31.75 41.625 30.625 42.75 29.25 42.75H19.25C17.875 42.75 16.75 41.625 16.75 40.25V33.25C16.75 32.4737 17.0683 32.1009 17.1749 31.85L19.45 27.2749C19.6682 27.0239 20.0761 25.75 21.75 25.75H26.75C28.424 25.75 28.8325 27.0247 29.0499 27.2749L31.325 31.85C31.4315 32.1004 31.75 32.4787 31.75 33.25Z" stroke="#F36249" stroke-width="2" stroke-miterlimit="10" stroke-linecap="round" stroke-linejoin="round"/>
<path d="M26.75 37.75H24.25C22.8693 37.75 21.75 36.6307 21.75 35.25V32.75H24.25C25.6307 32.75 26.75 33.8693 26.75 35.25V37.75Z" stroke="#F36249" stroke-width="2" stroke-miterlimit="10" stroke-linecap="round" stroke-linejoin="round"/>
</g>
<defs>
<clipPath id="clip0_2893_3635">
<rect width="32" height="32" fill="white" transform="translate(12 12)"/>
</clipPath>
</defs>
</svg>
